<?xml version="1.0" encoding="UTF-8"?>
<svg xmlns="http://www.w3.org/2000/svg" width="807" height="231">
   <defs>
      <style type="text/css">
    @namespace "http://www.w3.org/2000/svg";
    .line                 {fill: none; stroke: #001133; stroke-width: 1;}
    .bold-line            {stroke: #000714; shape-rendering: crispEdges; stroke-width: 2;}
    .thin-line            {stroke: #000A1F; shape-rendering: crispEdges}
    .filled               {fill: #001133; stroke: none;}
    text.terminal         {font-family: Verdana, Sans-serif;
                            font-size: 12px;
                            fill: #000714;
                            font-weight: bold;
                          }
    text.nonterminal      {font-family: Verdana, Sans-serif;
                            font-size: 12px;
                            fill: #00091A;
                            font-weight: normal;
                          }
    text.regexp           {font-family: Verdana, Sans-serif;
                            font-size: 12px;
                            fill: #000A1F;
                            font-weight: normal;
                          }
    rect, circle, polygon {fill: #001133; stroke: #001133;}
    rect.terminal         {fill: #4D88FF; stroke: #001133; stroke-width: 1;}
    rect.nonterminal      {fill: #9EBFFF; stroke: #001133; stroke-width: 1;}
    rect.text             {fill: none; stroke: none;}
    polygon.regexp        {fill: #C7DAFF; stroke: #001133; stroke-width: 1;}
  </style>
   </defs>
   <polygon points="9 5 1 1 1 9"/>
   <polygon points="17 5 9 1 9 9"/>
   <rect x="71" y="23" width="98" height="32" rx="10"/>
   <rect x="69"
          y="21"
          width="98"
          height="32"
          class="terminal"
          rx="10"/>
   <text class="terminal" x="79" y="41">-dateRange</text>
   <rect x="71" y="67" width="34" height="32" rx="10"/>
   <rect x="69"
          y="65"
          width="34"
          height="32"
          class="terminal"
          rx="10"/>
   <text class="terminal" x="79" y="85">-d</text>
   <a xmlns:xlink="http://www.w3.org/1999/xlink"
       xlink:href="#dateRange"
       xlink:title="dateRange">
      <rect x="209" y="23" width="88" height="32"/>
      <rect x="207" y="21" width="88" height="32" class="nonterminal"/>
      <text class="nonterminal" x="217" y="41">dateRange</text>
   </a>
   <rect x="377" y="23" width="150" height="32" rx="10"/>
   <rect x="375"
          y="21"
          width="150"
          height="32"
          class="terminal"
          rx="10"/>
   <text class="terminal" x="385" y="41">-programLanguage</text>
   <rect x="377" y="67" width="34" height="32" rx="10"/>
   <rect x="375"
          y="65"
          width="34"
          height="32"
          class="terminal"
          rx="10"/>
   <text class="terminal" x="385" y="85">-P</text>
   <a xmlns:xlink="http://www.w3.org/1999/xlink"
       xlink:href="#ProgrammingLanguageType"
       xlink:title="ProgrammingLanguageType">
      <rect x="567" y="23" width="198" height="32"/>
      <rect x="565" y="21" width="198" height="32" class="nonterminal"/>
      <text class="nonterminal" x="575" y="41">ProgrammingLanguageType</text>
   </a>
   <rect x="419" y="153" width="140" height="32" rx="10"/>
   <rect x="417"
          y="151"
          width="140"
          height="32"
          class="terminal"
          rx="10"/>
   <text class="terminal" x="427" y="171">-spokenLanguage</text>
   <rect x="419" y="197" width="34" height="32" rx="10"/>
   <rect x="417"
          y="195"
          width="34"
          height="32"
          class="terminal"
          rx="10"/>
   <text class="terminal" x="427" y="215">-S</text>
   <a xmlns:xlink="http://www.w3.org/1999/xlink"
       xlink:href="#SpokenLanguageType"
       xlink:title="SpokenLanguageType">
      <rect x="599" y="153" width="160" height="32"/>
      <rect x="597" y="151" width="160" height="32" class="nonterminal"/>
      <text class="nonterminal" x="607" y="171">SpokenLanguageType</text>
   </a>
   <path class="line"
          d="m17 5 h2 m20 0 h10 m0 0 h256 m-286 0 h20 m266 0 h20 m-306 0 q10 0 10 10 m286 0 q0 -10 10 -10 m-296 10 v12 m286 0 v-12 m-286 12 q0 10 10 10 m266 0 q10 0 10 -10 m-256 10 h10 m98 0 h10 m-138 0 h20 m118 0 h20 m-158 0 q10 0 10 10 m138 0 q0 -10 10 -10 m-148 10 v24 m138 0 v-24 m-138 24 q0 10 10 10 m118 0 q10 0 10 -10 m-128 10 h10 m34 0 h10 m0 0 h64 m20 -44 h10 m88 0 h10 m40 -32 h10 m0 0 h418 m-448 0 h20 m428 0 h20 m-468 0 q10 0 10 10 m448 0 q0 -10 10 -10 m-458 10 v12 m448 0 v-12 m-448 12 q0 10 10 10 m428 0 q10 0 10 -10 m-418 10 h10 m150 0 h10 m-190 0 h20 m170 0 h20 m-210 0 q10 0 10 10 m190 0 q0 -10 10 -10 m-200 10 v24 m190 0 v-24 m-190 24 q0 10 10 10 m170 0 q10 0 10 -10 m-180 10 h10 m34 0 h10 m0 0 h116 m20 -44 h10 m198 0 h10 m22 -32 l2 0 m2 0 l2 0 m2 0 l2 0 m-450 130 l2 0 m2 0 l2 0 m2 0 l2 0 m22 0 h10 m0 0 h370 m-400 0 h20 m380 0 h20 m-420 0 q10 0 10 10 m400 0 q0 -10 10 -10 m-410 10 v12 m400 0 v-12 m-400 12 q0 10 10 10 m380 0 q10 0 10 -10 m-370 10 h10 m140 0 h10 m-180 0 h20 m160 0 h20 m-200 0 q10 0 10 10 m180 0 q0 -10 10 -10 m-190 10 v24 m180 0 v-24 m-180 24 q0 10 10 10 m160 0 q10 0 10 -10 m-170 10 h10 m34 0 h10 m0 0 h106 m20 -44 h10 m160 0 h10 m23 -32 h-3"/>
   <polygon points="797 135 805 131 805 139"/>
   <polygon points="797 135 789 131 789 139"/>
</svg>
