<?xml version="1.0" encoding="UTF-8"?>
<svg xmlns="http://www.w3.org/2000/svg" width="415" height="81">
   <defs>
      <style type="text/css">
    @namespace "http://www.w3.org/2000/svg";
    .line                 {fill: none; stroke: #001133; stroke-width: 1;}
    .bold-line            {stroke: #000714; shape-rendering: crispEdges; stroke-width: 2;}
    .thin-line            {stroke: #000A1F; shape-rendering: crispEdges}
    .filled               {fill: #001133; stroke: none;}
    text.terminal         {font-family: Verdana, Sans-serif;
                            font-size: 12px;
                            fill: #000714;
                            font-weight: bold;
                          }
    text.nonterminal      {font-family: Verdana, Sans-serif;
                            font-size: 12px;
                            fill: #00091A;
                            font-weight: normal;
                          }
    text.regexp           {font-family: Verdana, Sans-serif;
                            font-size: 12px;
                            fill: #000A1F;
                            font-weight: normal;
                          }
    rect, circle, polygon {fill: #001133; stroke: #001133;}
    rect.terminal         {fill: #4D88FF; stroke: #001133; stroke-width: 1;}
    rect.nonterminal      {fill: #9EBFFF; stroke: #001133; stroke-width: 1;}
    rect.text             {fill: none; stroke: none;}
    polygon.regexp        {fill: #C7DAFF; stroke: #001133; stroke-width: 1;}
  </style>
   </defs>
   <polygon points="9 17 1 13 1 21"/>
   <polygon points="17 17 9 13 9 21"/>
   <rect x="31" y="3" width="102" height="32" rx="10"/>
   <rect x="29"
          y="1"
          width="102"
          height="32"
          class="terminal"
          rx="10"/>
   <text class="terminal" x="39" y="21">DOWNLOAD</text>
   <rect x="173" y="3" width="34" height="32" rx="10"/>
   <rect x="171"
          y="1"
          width="34"
          height="32"
          class="terminal"
          rx="10"/>
   <text class="terminal" x="181" y="21">-p</text>
   <rect x="173" y="47" width="96" height="32" rx="10"/>
   <rect x="171"
          y="45"
          width="96"
          height="32"
          class="terminal"
          rx="10"/>
   <text class="terminal" x="181" y="65">-POSITION</text>
   <a xmlns:xlink="http://www.w3.org/1999/xlink"
       xlink:href="#FileName"
       xlink:title="FileName">
      <rect x="309" y="3" width="78" height="32"/>
      <rect x="307" y="1" width="78" height="32" class="nonterminal"/>
      <text class="nonterminal" x="317" y="21">FileName</text>
   </a>
   <path class="line"
          d="m17 17 h2 m0 0 h10 m102 0 h10 m20 0 h10 m34 0 h10 m0 0 h62 m-136 0 h20 m116 0 h20 m-156 0 q10 0 10 10 m136 0 q0 -10 10 -10 m-146 10 v24 m136 0 v-24 m-136 24 q0 10 10 10 m116 0 q10 0 10 -10 m-126 10 h10 m96 0 h10 m20 -44 h10 m78 0 h10 m3 0 h-3"/>
   <polygon points="405 17 413 13 413 21"/>
   <polygon points="405 17 397 13 397 21"/>
</svg>
