<?xml version="1.0" encoding="UTF-8"?>
<svg xmlns="http://www.w3.org/2000/svg" width="453" height="113">
   <defs>
      <style type="text/css">
    @namespace "http://www.w3.org/2000/svg";
    .line                 {fill: none; stroke: #001133; stroke-width: 1;}
    .bold-line            {stroke: #000714; shape-rendering: crispEdges; stroke-width: 2;}
    .thin-line            {stroke: #000A1F; shape-rendering: crispEdges}
    .filled               {fill: #001133; stroke: none;}
    text.terminal         {font-family: Verdana, Sans-serif;
                            font-size: 12px;
                            fill: #000714;
                            font-weight: bold;
                          }
    text.nonterminal      {font-family: Verdana, Sans-serif;
                            font-size: 12px;
                            fill: #00091A;
                            font-weight: normal;
                          }
    text.regexp           {font-family: Verdana, Sans-serif;
                            font-size: 12px;
                            fill: #000A1F;
                            font-weight: normal;
                          }
    rect, circle, polygon {fill: #001133; stroke: #001133;}
    rect.terminal         {fill: #4D88FF; stroke: #001133; stroke-width: 1;}
    rect.nonterminal      {fill: #9EBFFF; stroke: #001133; stroke-width: 1;}
    rect.text             {fill: none; stroke: none;}
    polygon.regexp        {fill: #C7DAFF; stroke: #001133; stroke-width: 1;}
  </style>
   </defs>
   <polygon points="9 17 1 13 1 21"/>
   <polygon points="17 17 9 13 9 21"/>
   <rect x="51" y="3" width="68" height="32" rx="10"/>
   <rect x="49"
          y="1"
          width="68"
          height="32"
          class="terminal"
          rx="10"/>
   <text class="terminal" x="59" y="21">-metric</text>
   <a xmlns:xlink="http://www.w3.org/1999/xlink"
       xlink:href="#metric"
       xlink:title="metric">
      <rect x="139" y="3" width="58" height="32"/>
      <rect x="137" y="1" width="58" height="32" class="nonterminal"/>
      <text class="nonterminal" x="147" y="21">metric</text>
   </a>
   <rect x="237" y="35" width="68" height="32" rx="10"/>
   <rect x="235"
          y="33"
          width="68"
          height="32"
          class="terminal"
          rx="10"/>
   <text class="terminal" x="245" y="53">-month</text>
   <a xmlns:xlink="http://www.w3.org/1999/xlink"
       xlink:href="#month"
       xlink:title="month">
      <rect x="325" y="35" width="60" height="32"/>
      <rect x="323" y="33" width="60" height="32" class="nonterminal"/>
      <text class="nonterminal" x="333" y="53">month</text>
   </a>
   <rect x="51" y="79" width="68" height="32" rx="10"/>
   <rect x="49"
          y="77"
          width="68"
          height="32"
          class="terminal"
          rx="10"/>
   <text class="terminal" x="59" y="97">-month</text>
   <a xmlns:xlink="http://www.w3.org/1999/xlink"
       xlink:href="#month"
       xlink:title="month">
      <rect x="139" y="79" width="60" height="32"/>
      <rect x="137" y="77" width="60" height="32" class="nonterminal"/>
      <text class="nonterminal" x="147" y="97">month</text>
   </a>
   <path class="line"
          d="m17 17 h2 m20 0 h10 m68 0 h10 m0 0 h10 m58 0 h10 m20 0 h10 m0 0 h158 m-188 0 h20 m168 0 h20 m-208 0 q10 0 10 10 m188 0 q0 -10 10 -10 m-198 10 v12 m188 0 v-12 m-188 12 q0 10 10 10 m168 0 q10 0 10 -10 m-178 10 h10 m68 0 h10 m0 0 h10 m60 0 h10 m-374 -32 h20 m374 0 h20 m-414 0 q10 0 10 10 m394 0 q0 -10 10 -10 m-404 10 v56 m394 0 v-56 m-394 56 q0 10 10 10 m374 0 q10 0 10 -10 m-384 10 h10 m68 0 h10 m0 0 h10 m60 0 h10 m0 0 h206 m23 -76 h-3"/>
   <polygon points="443 17 451 13 451 21"/>
   <polygon points="443 17 435 13 435 21"/>
</svg>
