<?xml version="1.0" encoding="UTF-8"?>
<svg xmlns="http://www.w3.org/2000/svg" width="591" height="245">
   <defs>
      <style type="text/css">
    @namespace "http://www.w3.org/2000/svg";
    .line                 {fill: none; stroke: #001133; stroke-width: 1;}
    .bold-line            {stroke: #000714; shape-rendering: crispEdges; stroke-width: 2;}
    .thin-line            {stroke: #000A1F; shape-rendering: crispEdges}
    .filled               {fill: #001133; stroke: none;}
    text.terminal         {font-family: Verdana, Sans-serif;
                            font-size: 12px;
                            fill: #000714;
                            font-weight: bold;
                          }
    text.nonterminal      {font-family: Verdana, Sans-serif;
                            font-size: 12px;
                            fill: #00091A;
                            font-weight: normal;
                          }
    text.regexp           {font-family: Verdana, Sans-serif;
                            font-size: 12px;
                            fill: #000A1F;
                            font-weight: normal;
                          }
    rect, circle, polygon {fill: #001133; stroke: #001133;}
    rect.terminal         {fill: #4D88FF; stroke: #001133; stroke-width: 1;}
    rect.nonterminal      {fill: #9EBFFF; stroke: #001133; stroke-width: 1;}
    rect.text             {fill: none; stroke: none;}
    polygon.regexp        {fill: #C7DAFF; stroke: #001133; stroke-width: 1;}
  </style>
   </defs>
   <polygon points="9 17 1 13 1 21"/>
   <polygon points="17 17 9 13 9 21"/>
   <rect x="71" y="3" width="64" height="32" rx="10"/>
   <rect x="69"
          y="1"
          width="64"
          height="32"
          class="terminal"
          rx="10"/>
   <text class="terminal" x="79" y="21">SHOW</text>
   <a xmlns:xlink="http://www.w3.org/1999/xlink"
       xlink:href="#SearchOpt"
       xlink:title="SearchOpt">
      <rect x="155" y="3" width="86" height="32"/>
      <rect x="153" y="1" width="86" height="32" class="nonterminal"/>
      <text class="nonterminal" x="163" y="21">SearchOpt</text>
   </a>
   <a xmlns:xlink="http://www.w3.org/1999/xlink"
       xlink:href="#DownloadClause"
       xlink:title="DownloadClause">
      <rect x="71" y="47" width="126" height="32"/>
      <rect x="69" y="45" width="126" height="32" class="nonterminal"/>
      <text class="nonterminal" x="79" y="65">DownloadClause</text>
   </a>
   <a xmlns:xlink="http://www.w3.org/1999/xlink"
       xlink:href="#SearchOpt"
       xlink:title="SearchOpt">
      <rect x="237" y="79" width="86" height="32"/>
      <rect x="235" y="77" width="86" height="32" class="nonterminal"/>
      <text class="nonterminal" x="245" y="97">SearchOpt</text>
   </a>
   <a xmlns:xlink="http://www.w3.org/1999/xlink"
       xlink:href="#CompareClause"
       xlink:title="CompareClause">
      <rect x="403" y="35" width="120" height="32"/>
      <rect x="401" y="33" width="120" height="32" class="nonterminal"/>
      <text class="nonterminal" x="411" y="53">CompareClause</text>
   </a>
   <a xmlns:xlink="http://www.w3.org/1999/xlink"
       xlink:href="#BatchClause"
       xlink:title="BatchClause">
      <rect x="51" y="123" width="98" height="32"/>
      <rect x="49" y="121" width="98" height="32" class="nonterminal"/>
      <text class="nonterminal" x="59" y="141">BatchClause</text>
   </a>
   <rect x="51" y="167" width="48" height="32" rx="10"/>
   <rect x="49"
          y="165"
          width="48"
          height="32"
          class="terminal"
          rx="10"/>
   <text class="terminal" x="59" y="185">LOG</text>
   <rect x="51" y="211" width="54" height="32" rx="10"/>
   <rect x="49"
          y="209"
          width="54"
          height="32"
          class="terminal"
          rx="10"/>
   <text class="terminal" x="59" y="229">HELP</text>
   <path class="line"
          d="m17 17 h2 m40 0 h10 m64 0 h10 m0 0 h10 m86 0 h10 m0 0 h102 m-312 0 h20 m292 0 h20 m-332 0 q10 0 10 10 m312 0 q0 -10 10 -10 m-322 10 v24 m312 0 v-24 m-312 24 q0 10 10 10 m292 0 q10 0 10 -10 m-302 10 h10 m126 0 h10 m20 0 h10 m0 0 h96 m-126 0 h20 m106 0 h20 m-146 0 q10 0 10 10 m126 0 q0 -10 10 -10 m-136 10 v12 m126 0 v-12 m-126 12 q0 10 10 10 m106 0 q10 0 10 -10 m-116 10 h10 m86 0 h10 m60 -76 h10 m0 0 h130 m-160 0 h20 m140 0 h20 m-180 0 q10 0 10 10 m160 0 q0 -10 10 -10 m-170 10 v12 m160 0 v-12 m-160 12 q0 10 10 10 m140 0 q10 0 10 -10 m-150 10 h10 m120 0 h10 m-512 -32 h20 m512 0 h20 m-552 0 q10 0 10 10 m532 0 q0 -10 10 -10 m-542 10 v100 m532 0 v-100 m-532 100 q0 10 10 10 m512 0 q10 0 10 -10 m-522 10 h10 m98 0 h10 m0 0 h394 m-522 -10 v20 m532 0 v-20 m-532 20 v24 m532 0 v-24 m-532 24 q0 10 10 10 m512 0 q10 0 10 -10 m-522 10 h10 m48 0 h10 m0 0 h444 m-522 -10 v20 m532 0 v-20 m-532 20 v24 m532 0 v-24 m-532 24 q0 10 10 10 m512 0 q10 0 10 -10 m-522 10 h10 m54 0 h10 m0 0 h438 m23 -208 h-3"/>
   <polygon points="581 17 589 13 589 21"/>
   <polygon points="581 17 573 13 573 21"/>
</svg>
