<?xml version="1.0" encoding="UTF-8"?>
<svg xmlns="http://www.w3.org/2000/svg" width="703" height="133">
   <defs>
      <style type="text/css">
    @namespace "http://www.w3.org/2000/svg";
    .line                 {fill: none; stroke: #002233; stroke-width: 1;}
    .bold-line            {stroke: #000E14; shape-rendering: crispEdges; stroke-width: 2;}
    .thin-line            {stroke: #00141F; shape-rendering: crispEdges}
    .filled               {fill: #002233; stroke: none;}
    text.terminal         {font-family: Verdana, Sans-serif;
                            font-size: 12px;
                            fill: #000E14;
                            font-weight: bold;
                          }
    text.nonterminal      {font-family: Verdana, Sans-serif;
                            font-size: 12px;
                            fill: #00111A;
                            font-weight: normal;
                          }
    text.regexp           {font-family: Verdana, Sans-serif;
                            font-size: 12px;
                            fill: #00141F;
                            font-weight: normal;
                          }
    rect, circle, polygon {fill: #002233; stroke: #002233;}
    rect.terminal         {fill: #4DC3FF; stroke: #002233; stroke-width: 1;}
    rect.nonterminal      {fill: #9EDFFF; stroke: #002233; stroke-width: 1;}
    rect.text             {fill: none; stroke: none;}
    polygon.regexp        {fill: #C7ECFF; stroke: #002233; stroke-width: 1;}
  </style>
   </defs>
   <polygon points="9 5 1 1 1 9"/>
   <polygon points="17 5 9 1 9 9"/>
   <rect x="71" y="23" width="74" height="32" rx="10"/>
   <rect x="69"
          y="21"
          width="74"
          height="32"
          class="terminal"
          rx="10"/>
   <text class="terminal" x="79" y="41">-FILTER</text>
   <rect x="71" y="67" width="34" height="32" rx="10"/>
   <rect x="69"
          y="65"
          width="34"
          height="32"
          class="terminal"
          rx="10"/>
   <text class="terminal" x="79" y="85">-F</text>
   <a xmlns:xlink="http://www.w3.org/1999/xlink"
       xlink:href="#exp"
       xlink:title="exp">
      <rect x="185" y="23" width="42" height="32"/>
      <rect x="183" y="21" width="42" height="32" class="nonterminal"/>
      <text class="nonterminal" x="193" y="41">exp</text>
   </a>
   <rect x="307" y="23" width="92" height="32" rx="10"/>
   <rect x="305"
          y="21"
          width="92"
          height="32"
          class="terminal"
          rx="10"/>
   <text class="terminal" x="315" y="41">-ORDERBY</text>
   <rect x="307" y="67" width="36" height="32" rx="10"/>
   <rect x="305"
          y="65"
          width="36"
          height="32"
          class="terminal"
          rx="10"/>
   <text class="terminal" x="315" y="85">-O</text>
   <a xmlns:xlink="http://www.w3.org/1999/xlink"
       xlink:href="#metric"
       xlink:title="metric">
      <rect x="459" y="23" width="58" height="32"/>
      <rect x="457" y="21" width="58" height="32" class="nonterminal"/>
      <text class="nonterminal" x="467" y="41">metric</text>
   </a>
   <a xmlns:xlink="http://www.w3.org/1999/xlink"
       xlink:href="#month"
       xlink:title="month">
      <rect x="459" y="67" width="60" height="32"/>
      <rect x="457" y="65" width="60" height="32" class="nonterminal"/>
      <text class="nonterminal" x="467" y="85">month</text>
   </a>
   <rect x="579" y="55" width="46" height="32" rx="10"/>
   <rect x="577"
          y="53"
          width="46"
          height="32"
          class="terminal"
          rx="10"/>
   <text class="terminal" x="587" y="73">ASC</text>
   <rect x="579" y="99" width="56" height="32" rx="10"/>
   <rect x="577"
          y="97"
          width="56"
          height="32"
          class="terminal"
          rx="10"/>
   <text class="terminal" x="587" y="117">DESC</text>
   <path class="line"
          d="m17 5 h2 m20 0 h10 m0 0 h186 m-216 0 h20 m196 0 h20 m-236 0 q10 0 10 10 m216 0 q0 -10 10 -10 m-226 10 v12 m216 0 v-12 m-216 12 q0 10 10 10 m196 0 q10 0 10 -10 m-186 10 h10 m74 0 h10 m-114 0 h20 m94 0 h20 m-134 0 q10 0 10 10 m114 0 q0 -10 10 -10 m-124 10 v24 m114 0 v-24 m-114 24 q0 10 10 10 m94 0 q10 0 10 -10 m-104 10 h10 m34 0 h10 m0 0 h40 m20 -44 h10 m42 0 h10 m40 -32 h10 m0 0 h378 m-408 0 h20 m388 0 h20 m-428 0 q10 0 10 10 m408 0 q0 -10 10 -10 m-418 10 v12 m408 0 v-12 m-408 12 q0 10 10 10 m388 0 q10 0 10 -10 m-378 10 h10 m92 0 h10 m-132 0 h20 m112 0 h20 m-152 0 q10 0 10 10 m132 0 q0 -10 10 -10 m-142 10 v24 m132 0 v-24 m-132 24 q0 10 10 10 m112 0 q10 0 10 -10 m-122 10 h10 m36 0 h10 m0 0 h56 m40 -44 h10 m58 0 h10 m0 0 h2 m-100 0 h20 m80 0 h20 m-120 0 q10 0 10 10 m100 0 q0 -10 10 -10 m-110 10 v24 m100 0 v-24 m-100 24 q0 10 10 10 m80 0 q10 0 10 -10 m-90 10 h10 m60 0 h10 m40 -44 h10 m0 0 h66 m-96 0 h20 m76 0 h20 m-116 0 q10 0 10 10 m96 0 q0 -10 10 -10 m-106 10 v12 m96 0 v-12 m-96 12 q0 10 10 10 m76 0 q10 0 10 -10 m-86 10 h10 m46 0 h10 m0 0 h10 m-86 -10 v20 m96 0 v-20 m-96 20 v24 m96 0 v-24 m-96 24 q0 10 10 10 m76 0 q10 0 10 -10 m-86 10 h10 m56 0 h10 m43 -108 h-3"/>
   <polygon points="693 5 701 1 701 9"/>
   <polygon points="693 5 685 1 685 9"/>
</svg>
