<?xml version="1.0" encoding="UTF-8"?>
<svg xmlns="http://www.w3.org/2000/svg" width="629" height="81">
   <defs>
      <style type="text/css">
    @namespace "http://www.w3.org/2000/svg";
    .line                 {fill: none; stroke: #002233; stroke-width: 1;}
    .bold-line            {stroke: #000E14; shape-rendering: crispEdges; stroke-width: 2;}
    .thin-line            {stroke: #00141F; shape-rendering: crispEdges}
    .filled               {fill: #002233; stroke: none;}
    text.terminal         {font-family: Verdana, Sans-serif;
                            font-size: 12px;
                            fill: #000E14;
                            font-weight: bold;
                          }
    text.nonterminal      {font-family: Verdana, Sans-serif;
                            font-size: 12px;
                            fill: #00111A;
                            font-weight: normal;
                          }
    text.regexp           {font-family: Verdana, Sans-serif;
                            font-size: 12px;
                            fill: #00141F;
                            font-weight: normal;
                          }
    rect, circle, polygon {fill: #002233; stroke: #002233;}
    rect.terminal         {fill: #4DC3FF; stroke: #002233; stroke-width: 1;}
    rect.nonterminal      {fill: #9EDFFF; stroke: #002233; stroke-width: 1;}
    rect.text             {fill: none; stroke: none;}
    polygon.regexp        {fill: #C7ECFF; stroke: #002233; stroke-width: 1;}
  </style>
   </defs>
   <polygon points="9 17 1 13 1 21"/>
   <polygon points="17 17 9 13 9 21"/>
   <rect x="31" y="3" width="102" height="32" rx="10"/>
   <rect x="29"
          y="1"
          width="102"
          height="32"
          class="terminal"
          rx="10"/>
   <text class="terminal" x="39" y="21">DOWNLOAD</text>
   <rect x="173" y="3" width="34" height="32" rx="10"/>
   <rect x="171"
          y="1"
          width="34"
          height="32"
          class="terminal"
          rx="10"/>
   <text class="terminal" x="181" y="21">-P</text>
   <rect x="173" y="47" width="96" height="32" rx="10"/>
   <rect x="171"
          y="45"
          width="96"
          height="32"
          class="terminal"
          rx="10"/>
   <text class="terminal" x="181" y="65">-POSITION</text>
   <a xmlns:xlink="http://www.w3.org/1999/xlink"
       xlink:href="#FileName"
       xlink:title="FileName">
      <rect x="309" y="3" width="78" height="32"/>
      <rect x="307" y="1" width="78" height="32" class="nonterminal"/>
      <text class="nonterminal" x="317" y="21">FileName</text>
   </a>
   <rect x="427" y="35" width="68" height="32" rx="10"/>
   <rect x="425"
          y="33"
          width="68"
          height="32"
          class="terminal"
          rx="10"/>
   <text class="terminal" x="435" y="53">-DRAW</text>
   <a xmlns:xlink="http://www.w3.org/1999/xlink"
       xlink:href="#figType"
       xlink:title="figType">
      <rect x="515" y="35" width="66" height="32"/>
      <rect x="513" y="33" width="66" height="32" class="nonterminal"/>
      <text class="nonterminal" x="523" y="53">figType</text>
   </a>
   <path class="line"
          d="m17 17 h2 m0 0 h10 m102 0 h10 m20 0 h10 m34 0 h10 m0 0 h62 m-136 0 h20 m116 0 h20 m-156 0 q10 0 10 10 m136 0 q0 -10 10 -10 m-146 10 v24 m136 0 v-24 m-136 24 q0 10 10 10 m116 0 q10 0 10 -10 m-126 10 h10 m96 0 h10 m20 -44 h10 m78 0 h10 m20 0 h10 m0 0 h164 m-194 0 h20 m174 0 h20 m-214 0 q10 0 10 10 m194 0 q0 -10 10 -10 m-204 10 v12 m194 0 v-12 m-194 12 q0 10 10 10 m174 0 q10 0 10 -10 m-184 10 h10 m68 0 h10 m0 0 h10 m66 0 h10 m23 -32 h-3"/>
   <polygon points="619 17 627 13 627 21"/>
   <polygon points="619 17 611 13 611 21"/>
</svg>
