<?xml version="1.0" encoding="UTF-8"?>
<svg xmlns="http://www.w3.org/2000/svg" width="437" height="81">
   <defs>
      <style type="text/css">
    @namespace "http://www.w3.org/2000/svg";
    .line                 {fill: none; stroke: #002233; stroke-width: 1;}
    .bold-line            {stroke: #000E14; shape-rendering: crispEdges; stroke-width: 2;}
    .thin-line            {stroke: #00141F; shape-rendering: crispEdges}
    .filled               {fill: #002233; stroke: none;}
    text.terminal         {font-family: Verdana, Sans-serif;
                            font-size: 12px;
                            fill: #000E14;
                            font-weight: bold;
                          }
    text.nonterminal      {font-family: Verdana, Sans-serif;
                            font-size: 12px;
                            fill: #00111A;
                            font-weight: normal;
                          }
    text.regexp           {font-family: Verdana, Sans-serif;
                            font-size: 12px;
                            fill: #00141F;
                            font-weight: normal;
                          }
    rect, circle, polygon {fill: #002233; stroke: #002233;}
    rect.terminal         {fill: #4DC3FF; stroke: #002233; stroke-width: 1;}
    rect.nonterminal      {fill: #9EDFFF; stroke: #002233; stroke-width: 1;}
    rect.text             {fill: none; stroke: none;}
    polygon.regexp        {fill: #C7ECFF; stroke: #002233; stroke-width: 1;}
  </style>
   </defs>
   <polygon points="9 17 1 13 1 21"/>
   <polygon points="17 17 9 13 9 21"/>
   <rect x="31" y="3" width="48" height="32" rx="10"/>
   <rect x="29"
          y="1"
          width="48"
          height="32"
          class="terminal"
          rx="10"/>
   <text class="terminal" x="39" y="21">LOG</text>
   <rect x="99" y="3" width="72" height="32" rx="10"/>
   <rect x="97"
          y="1"
          width="72"
          height="32"
          class="terminal"
          rx="10"/>
   <text class="terminal" x="107" y="21">-CACHE</text>
   <a xmlns:xlink="http://www.w3.org/1999/xlink"
       xlink:href="#FileName"
       xlink:title="FileName">
      <rect x="191" y="3" width="78" height="32"/>
      <rect x="189" y="1" width="78" height="32" class="nonterminal"/>
      <text class="nonterminal" x="199" y="21">FileName</text>
   </a>
   <rect x="309" y="3" width="80" height="32" rx="10"/>
   <rect x="307"
          y="1"
          width="80"
          height="32"
          class="terminal"
          rx="10"/>
   <text class="terminal" x="317" y="21">DISPLAY</text>
   <a xmlns:xlink="http://www.w3.org/1999/xlink"
       xlink:href="#logNo"
       xlink:title="logNo">
      <rect x="309" y="47" width="56" height="32"/>
      <rect x="307" y="45" width="56" height="32" class="nonterminal"/>
      <text class="nonterminal" x="317" y="65">logNo</text>
   </a>
   <path class="line"
          d="m17 17 h2 m0 0 h10 m48 0 h10 m0 0 h10 m72 0 h10 m0 0 h10 m78 0 h10 m20 0 h10 m80 0 h10 m-120 0 h20 m100 0 h20 m-140 0 q10 0 10 10 m120 0 q0 -10 10 -10 m-130 10 v24 m120 0 v-24 m-120 24 q0 10 10 10 m100 0 q10 0 10 -10 m-110 10 h10 m56 0 h10 m0 0 h24 m23 -44 h-3"/>
   <polygon points="427 17 435 13 435 21"/>
   <polygon points="427 17 419 13 419 21"/>
</svg>
