<?xml version="1.0" encoding="UTF-8"?>
<svg xmlns="http://www.w3.org/2000/svg" width="747" height="213">
   <defs>
      <style type="text/css">
    @namespace "http://www.w3.org/2000/svg";
    .line                 {fill: none; stroke: #002233; stroke-width: 1;}
    .bold-line            {stroke: #000E14; shape-rendering: crispEdges; stroke-width: 2;}
    .thin-line            {stroke: #00141F; shape-rendering: crispEdges}
    .filled               {fill: #002233; stroke: none;}
    text.terminal         {font-family: Verdana, Sans-serif;
                            font-size: 12px;
                            fill: #000E14;
                            font-weight: bold;
                          }
    text.nonterminal      {font-family: Verdana, Sans-serif;
                            font-size: 12px;
                            fill: #00111A;
                            font-weight: normal;
                          }
    text.regexp           {font-family: Verdana, Sans-serif;
                            font-size: 12px;
                            fill: #00141F;
                            font-weight: normal;
                          }
    rect, circle, polygon {fill: #002233; stroke: #002233;}
    rect.terminal         {fill: #4DC3FF; stroke: #002233; stroke-width: 1;}
    rect.nonterminal      {fill: #9EDFFF; stroke: #002233; stroke-width: 1;}
    rect.text             {fill: none; stroke: none;}
    polygon.regexp        {fill: #C7ECFF; stroke: #002233; stroke-width: 1;}
  </style>
   </defs>
   <polygon points="9 17 1 13 1 21"/>
   <polygon points="17 17 9 13 9 21"/>
   <rect x="71" y="3" width="64" height="32" rx="10"/>
   <rect x="69"
          y="1"
          width="64"
          height="32"
          class="terminal"
          rx="10"/>
   <text class="terminal" x="79" y="21">SHOW</text>
   <a xmlns:xlink="http://www.w3.org/1999/xlink"
       xlink:href="#DownloadClause"
       xlink:title="DownloadClause">
      <rect x="71" y="47" width="126" height="32"/>
      <rect x="69" y="45" width="126" height="32" class="nonterminal"/>
      <text class="nonterminal" x="79" y="65">DownloadClause</text>
   </a>
   <rect x="257" y="35" width="86" height="32" rx="10"/>
   <rect x="255"
          y="33"
          width="86"
          height="32"
          class="terminal"
          rx="10"/>
   <text class="terminal" x="265" y="53">COMPARE</text>
   <a xmlns:xlink="http://www.w3.org/1999/xlink"
       xlink:href="#SearchOpt"
       xlink:title="SearchOpt">
      <rect x="383" y="3" width="86" height="32"/>
      <rect x="381" y="1" width="86" height="32" class="nonterminal"/>
      <text class="nonterminal" x="391" y="21">SearchOpt</text>
   </a>
   <a xmlns:xlink="http://www.w3.org/1999/xlink"
       xlink:href="#BatchClause"
       xlink:title="BatchClause">
      <rect x="51" y="91" width="98" height="32"/>
      <rect x="49" y="89" width="98" height="32" class="nonterminal"/>
      <text class="nonterminal" x="59" y="109">BatchClause</text>
   </a>
   <a xmlns:xlink="http://www.w3.org/1999/xlink"
       xlink:href="#LogClause"
       xlink:title="LogClause">
      <rect x="51" y="135" width="86" height="32"/>
      <rect x="49" y="133" width="86" height="32" class="nonterminal"/>
      <text class="nonterminal" x="59" y="153">LogClause</text>
   </a>
   <rect x="51" y="179" width="54" height="32" rx="10"/>
   <rect x="49"
          y="177"
          width="54"
          height="32"
          class="terminal"
          rx="10"/>
   <text class="terminal" x="59" y="197">HELP</text>
   <rect x="529" y="35" width="72" height="32" rx="10"/>
   <rect x="527"
          y="33"
          width="72"
          height="32"
          class="terminal"
          rx="10"/>
   <text class="terminal" x="537" y="53">-CACHE</text>
   <a xmlns:xlink="http://www.w3.org/1999/xlink"
       xlink:href="#FileName"
       xlink:title="FileName">
      <rect x="621" y="35" width="78" height="32"/>
      <rect x="619" y="33" width="78" height="32" class="nonterminal"/>
      <text class="nonterminal" x="629" y="53">FileName</text>
   </a>
   <path class="line"
          d="m17 17 h2 m40 0 h10 m64 0 h10 m0 0 h62 m-166 0 h20 m146 0 h20 m-186 0 q10 0 10 10 m166 0 q0 -10 10 -10 m-176 10 v24 m166 0 v-24 m-166 24 q0 10 10 10 m146 0 q10 0 10 -10 m-156 10 h10 m126 0 h10 m40 -44 h10 m0 0 h96 m-126 0 h20 m106 0 h20 m-146 0 q10 0 10 10 m126 0 q0 -10 10 -10 m-136 10 v12 m126 0 v-12 m-126 12 q0 10 10 10 m106 0 q10 0 10 -10 m-116 10 h10 m86 0 h10 m20 -32 h10 m86 0 h10 m-458 0 h20 m438 0 h20 m-478 0 q10 0 10 10 m458 0 q0 -10 10 -10 m-468 10 v68 m458 0 v-68 m-458 68 q0 10 10 10 m438 0 q10 0 10 -10 m-448 10 h10 m98 0 h10 m0 0 h320 m-448 -10 v20 m458 0 v-20 m-458 20 v24 m458 0 v-24 m-458 24 q0 10 10 10 m438 0 q10 0 10 -10 m-448 10 h10 m86 0 h10 m0 0 h332 m-448 -10 v20 m458 0 v-20 m-458 20 v24 m458 0 v-24 m-458 24 q0 10 10 10 m438 0 q10 0 10 -10 m-448 10 h10 m54 0 h10 m0 0 h364 m40 -176 h10 m0 0 h180 m-210 0 h20 m190 0 h20 m-230 0 q10 0 10 10 m210 0 q0 -10 10 -10 m-220 10 v12 m210 0 v-12 m-210 12 q0 10 10 10 m190 0 q10 0 10 -10 m-200 10 h10 m72 0 h10 m0 0 h10 m78 0 h10 m23 -32 h-3"/>
   <polygon points="737 17 745 13 745 21"/>
   <polygon points="737 17 729 13 729 21"/>
</svg>
